HIERARCHY
ROOT Hips
{
	OFFSET 0 0 0
	CHANNELS 6 Xposition Yposition Zposition Yrotation Xrotation Zrotation
	JOINT Spine
	{
		OFFSET -0 8.35985 -2.6647
		CHANNELS 3 Yrotation Xrotation Zrotation
		JOINT Spine1
		{
			OFFSET -0 8.84123 0
			CHANNELS 3 Yrotation Xrotation Zrotation
			JOINT Spine2
			{
				OFFSET -0 8.84123 0
				CHANNELS 3 Yrotation Xrotation Zrotation
				JOINT Spine3
				{
					OFFSET -0 8.84123 0
					CHANNELS 3 Yrotation Xrotation Zrotation
					JOINT Neck
					{
						OFFSET -0 19.9843 3.6647
						CHANNELS 3 Yrotation Xrotation Zrotation
						JOINT Head
						{
							OFFSET -0 10.4498 0
							CHANNELS 3 Yrotation Xrotation Zrotation
							End Site
							{
								OFFSET 0 15 0
							}
						}
					}
					JOINT LeftShoulder
					{
						OFFSET 1.74164 7.25772 3.48327
						CHANNELS 3 Yrotation Xrotation Zrotation
						JOINT LeftArm
						{
							OFFSET 14.6989 0 0
							CHANNELS 3 Yrotation Xrotation Zrotation
							JOINT LeftForeArm
							{
								OFFSET 25.0836 0 0
								CHANNELS 3 Yrotation Xrotation Zrotation
								JOINT LeftHand
								{
									OFFSET 24.2188 0 0
									CHANNELS 3 Yrotation Xrotation Zrotation
									End Site
									{
										OFFSET 15 0 0
									}
								}
							}
						}
					}
					JOINT RightShoulder
					{
						OFFSET -1.74164 7.25772 3.48327
						CHANNELS 3 Yrotation Xrotation Zrotation
						JOINT RightArm
						{
							OFFSET -14.6989 0 0
							CHANNELS 3 Yrotation Xrotation Zrotation
							JOINT RightForeArm
							{
								OFFSET -25.0836 0 0
								CHANNELS 3 Yrotation Xrotation Zrotation
								JOINT RightHand
								{
									OFFSET -24.2188 0 0
									CHANNELS 3 Yrotation Xrotation Zrotation
									End Site
									{
										OFFSET -15 0 0
									}
								}
							}
						}
					}
				}
			}
		}
	}
	JOINT LeftUpLeg
	{
		OFFSET 10.4498 -3.48327 2
		CHANNELS 3 Yrotation Xrotation Zrotation
		JOINT LeftLeg
		{
			OFFSET -0 -39.0946 2.43829
			CHANNELS 3 Yrotation Xrotation Zrotation
			JOINT LeftFoot
			{
				OFFSET -0 -41.1286 -2.43829
				CHANNELS 3 Yrotation Xrotation Zrotation
				JOINT LeftToeBase
				{
					OFFSET -0 -6.72445 15.6747
					CHANNELS 3 Yrotation Xrotation Zrotation
					End Site
					{
						OFFSET 0 0 5
					}
				}
			}
		}
	}
	JOINT RightUpLeg
	{
		OFFSET -10.4498 -3.48327 2
		CHANNELS 3 Yrotation Xrotation Zrotation
		JOINT RightLeg
		{
			OFFSET -0 -39.0946 2.43829
			CHANNELS 3 Yrotation Xrotation Zrotation
			JOINT RightFoot
			{
				OFFSET -0 -41.1286 -2.43829
				CHANNELS 3 Yrotation Xrotation Zrotation
				JOINT RightToeBase
				{
					OFFSET -0 -6.72445 15.6747
					CHANNELS 3 Yrotation Xrotation Zrotation
					End Site
					{
						OFFSET 0 0 5
					}
				}
			}
		}
	}
}
MOTION
Frames: 11
Frame Time: 0.00833333
-95.211713 92.919556 -33.508911 -27.265909 3.558559 4.738815 -1.397000 1.468490 -0.942886 -1.933033 1.085407 0.138907 -3.709699 1.019316 1.214689 -4.107323 0.903707 1.337475 -19.003148 -5.280093 -11.292919 -8.730326 -0.709218 3.292221 10.525188 15.966267 0.697664 -31.376531 15.879242 -72.967633 -53.435538 9.918233 -0.073609 30.502939 -3.346493 -11.833577 7.016132 -10.481241 -25.200179 67.055332 -25.904025 -28.381137 68.677063 -12.352802 -49.290288 1.514565 4.818614 60.471015 23.178581 -7.228563 10.029208 0.000000 19.010732 0.000000 14.249406 11.962001 -18.730740 0.000000 -11.036355 0.000000 -2.968543 -14.971503 -15.597659 0.000000 17.184836 0.000000 8.468363 -2.749940 13.277381 0.000000 -4.884101 0.000000
-95.126306 92.883820 -33.502151 -27.529964 3.488627 4.645411 -1.218146 1.479141 -0.927563 -1.786324 1.180643 0.197386 -3.595346 1.026751 1.326856 -3.972799 0.956869 1.479806 -19.189232 -5.528125 -10.901254 -8.773933 -0.776462 2.469075 10.615415 16.291031 1.207973 -32.173923 15.896965 -73.217961 -53.844937 9.512548 -0.317933 30.397112 -3.954365 -12.535844 6.971731 -10.548045 -24.918402 67.727093 -26.421770 -28.235359 68.795887 -11.809510 -49.666878 0.856140 4.402690 58.761824 23.165617 -7.583794 10.121946 0.000000 19.828141 0.000000 14.358095 11.917240 -18.789142 0.000000 -11.226626 0.000000 -2.983059 -14.979303 -15.555777 0.000000 17.171400 0.000000 8.706827 -2.846043 13.384067 0.000000 -4.734026 0.000000
-95.049939 92.855890 -33.492767 -27.819653 3.469818 4.540756 -1.044874 1.490283 -0.831556 -1.636286 1.201391 0.293402 -3.451403 1.028269 1.396975 -3.900299 0.968448 1.387263 -19.331084 -5.674230 -10.334804 -8.773784 -0.810987 1.607925 10.556355 16.264161 1.728076 -32.315797 16.267538 -73.494494 -54.375026 9.361017 -0.755918 30.120766 -4.139491 -13.362794 6.916860 -10.474801 -24.403963 68.405497 -26.884686 -28.121366 69.200387 -11.412916 -50.178551 0.833891 4.331233 57.143478 23.138154 -7.975978 10.212939 0.000000 20.655854 0.000000 14.501655 11.866308 -18.835046 0.000000 -11.337706 0.000000 -2.983894 -15.017945 -15.497372 0.000000 17.107168 0.000000 9.004474 -2.887554 13.510382 0.000000 -4.691026 0.000000
-94.969617 92.828046 -33.499124 -27.974969 3.428410 4.452779 -0.991759 1.507230 -0.878641 -1.557062 1.242169 0.332023 -3.343554 1.034900 1.529443 -3.782786 1.041566 1.546233 -19.412463 -5.930303 -9.865127 -8.743145 -0.707579 0.764901 10.564973 16.287202 2.104904 -32.449008 16.530160 -73.673464 -54.973304 9.203751 -1.357994 29.862280 -4.312327 -13.322963 6.957119 -10.355779 -23.802546 69.147708 -27.094415 -28.236318 70.089916 -11.501860 -50.853029 0.564781 5.259471 55.528444 22.839235 -8.382152 10.297652 0.000000 21.511486 0.000000 14.721436 11.893223 -18.929656 0.000000 -11.503882 0.000000 -3.095823 -15.035386 -15.455165 0.000000 17.056097 0.000000 9.265081 -2.916737 13.733083 0.000000 -4.700456 0.000000
-94.877502 92.798059 -33.513889 -28.124783 3.396495 4.354166 -0.867113 1.510983 -0.879017 -1.450366 1.298258 0.391273 -3.307440 1.162140 1.641322 -3.581523 0.945603 1.766497 -19.530349 -6.198869 -9.551112 -8.737900 -0.642019 -0.078185 10.439113 16.313891 2.322051 -32.689599 16.936072 -73.764415 -55.603961 9.572313 -1.754775 29.336337 -4.807062 -14.157858 7.003194 -10.444378 -23.562270 69.648454 -27.561275 -27.810255 70.054615 -10.636014 -51.213814 0.624234 4.803702 53.961401 22.420913 -8.821834 10.378437 0.000000 22.424756 0.000000 15.031996 11.918205 -19.055616 0.000000 -11.585619 0.000000 -3.215459 -15.088547 -15.403019 0.000000 17.004343 0.000000 9.548645 -2.877199 13.877919 0.000000 -4.830804 0.000000
-94.788733 92.768542 -33.516861 -28.281288 3.325222 4.223814 -0.750561 1.568019 -0.839607 -1.280342 1.305510 0.485921 -3.135960 1.055563 1.781932 -3.621101 1.145746 1.758051 -19.683626 -6.393725 -9.077000 -8.738346 -0.581113 -0.893953 10.478180 16.292555 2.844893 -33.153845 17.139777 -73.923248 -56.027718 9.570448 -2.170581 28.660511 -4.971104 -14.579108 7.098898 -10.435431 -23.093913 70.016040 -27.667898 -27.457427 70.411154 -10.033230 -51.979189 0.514692 4.949360 52.508817 22.158753 -9.190904 10.496618 0.000000 23.233832 0.000000 15.295932 11.903138 -19.082765 0.000000 -11.671669 0.000000 -3.267219 -15.065272 -15.325308 0.000000 16.954313 0.000000 9.736582 -2.858785 14.088337 0.000000 -4.970515 0.000000
-94.714648 92.739514 -33.523132 -28.420319 3.262294 4.079710 -0.697056 1.565658 -0.815427 -1.243717 1.350913 0.554375 -3.039857 1.149067 1.883108 -3.414995 1.158076 1.899765 -19.791361 -6.607344 -8.666364 -8.713876 -0.521586 -1.839066 10.446740 16.209765 3.206827 -33.427443 17.509029 -74.080646 -56.702814 9.583782 -2.460264 28.252930 -5.307087 -15.230064 7.259181 -10.309011 -22.698363 70.175707 -27.698775 -27.063319 70.471837 -9.105165 -52.764394 0.279005 4.533682 50.815204 21.794055 -9.623868 10.660794 0.000000 24.119101 0.000000 15.506311 12.060357 -19.376082 0.000000 -12.020949 0.000000 -3.318518 -15.032142 -15.223037 0.000000 16.881812 0.000000 9.891024 -2.811209 14.266259 0.000000 -5.135671 0.000000
-94.629028 92.712305 -33.526025 -28.454520 3.172090 3.954390 -0.599342 1.533839 -0.749390 -1.215372 1.438656 0.623182 -2.988843 1.254486 1.936669 -3.222640 1.174237 2.073223 -19.898994 -6.891321 -8.408812 -8.699562 -0.365858 -2.638862 10.289690 16.107673 3.440837 -33.546642 18.050171 -73.928560 -57.660530 9.486330 -3.017720 27.309504 -5.817892 -15.851851 7.281837 -10.305509 -22.343606 70.603159 -27.972687 -26.677673 70.582039 -8.314926 -53.184411 0.106494 4.083029 49.092567 21.524893 -10.079267 10.785886 0.000000 25.022271 0.000000 15.655826 12.069490 -19.271473 0.000000 -12.093596 0.000000 -3.499696 -14.940466 -15.146999 0.000000 16.763777 0.000000 10.085553 -2.806328 14.457111 0.000000 -5.238819 0.000000
-94.552698 92.688141 -33.524435 -28.508141 3.043883 3.791115 -0.537334 1.618944 -0.647940 -1.057020 1.444422 0.778495 -2.840187 1.295644 2.106956 -3.180571 1.218800 1.959983 -20.126882 -7.034615 -8.211547 -8.755469 -0.326251 -3.226131 10.238101 16.062743 3.698941 -33.664664 18.501871 -73.488868 -58.607550 9.542703 -3.774614 26.892468 -6.237659 -16.492650 7.141726 -10.251536 -21.727512 71.355625 -28.094424 -26.465227 70.421439 -7.525457 -53.580655 0.058445 3.517598 47.449170 21.114059 -10.477966 10.975761 0.000000 25.907951 0.000000 15.882067 12.180095 -19.324458 0.000000 -12.200896 0.000000 -3.702991 -14.823602 -15.027332 0.000000 16.653356 0.000000 10.323153 -2.729705 14.666126 0.000000 -5.260026 0.000000
-94.468048 92.659686 -33.529584 -28.545833 2.931029 3.637108 -0.477127 1.667968 -0.558364 -1.005887 1.508867 0.869072 -2.742821 1.329890 2.204170 -3.002305 1.229773 2.089083 -20.322803 -7.189386 -8.112104 -8.798409 -0.267509 -3.848289 10.134443 15.975461 4.003769 -33.864433 18.932379 -73.261158 -59.513036 9.534591 -4.383847 26.535343 -6.987570 -17.629955 7.147260 -10.136022 -21.136201 71.804331 -27.882987 -26.336412 70.827684 -7.267490 -54.094434 -0.064783 3.612247 45.252037 20.819360 -10.938011 11.166139 0.000000 26.818198 0.000000 15.935875 12.339247 -19.405031 0.000000 -12.500193 0.000000 -3.906194 -14.749489 -14.917880 0.000000 16.584584 0.000000 10.549926 -2.660369 14.859504 0.000000 -5.225598 0.000000
-94.389447 92.623224 -33.535104 -28.562722 2.786154 3.420943 -0.316124 1.604180 -0.388946 -0.984415 1.667976 0.965379 -2.676395 1.436810 2.211968 -2.811117 1.300770 2.242974 -20.484892 -7.326092 -7.880446 -8.815477 -0.288446 -4.600985 9.958564 15.816229 4.370788 -34.039660 19.334682 -73.027302 -60.435041 9.231597 -4.951584 26.146944 -7.284537 -18.598471 7.154681 -10.139052 -20.671974 72.120979 -28.022594 -25.941173 71.216974 -6.675731 -54.342819 -0.446751 3.755897 42.808394 20.549584 -11.447276 11.429540 0.000000 27.798292 0.000000 15.955357 12.448543 -19.427623 0.000000 -12.731195 0.000000 -4.242913 -14.662487 -14.725331 0.000000 16.522144 0.000000 10.902342 -2.581740 14.981199 0.000000 -5.148269 0.000000
